<svg xmlns="http://www.w3.org/2000/svg" id="icon-roubo-e-furto" viewBox="0 0 18 18" width="24" height="24"><circle r="8.68" cy="8.9" cx="9" style="fill:#6e9bff;opacity:.4"></circle><path d="m12.62 14.64c0 0.66-0.48 1.19-1.07 1.19l-4.98 0c-0.59 0-1.07-0.53-1.07-1.19l0-11.2c0-0.66 0.48-1.19 1.07-1.19l4.98 0c0.59 0 1.07 0.53 1.07 1.19l0 11.2z" fill="#6e9bff"></path><polygon points="11.56 3.59 6.56 3.59 6.56 3.6 6.56 12.05 11.56 12.05 11.56 3.6 " fill="#fff"></polygon><path d="m10.19 13.89c0 0.63-0.51 1.14-1.14 1.14-0.63 0-1.14-0.51-1.14-1.14 0-0.63 0.51-1.14 1.14-1.14 0.64 0 1.14 0.51 1.14 1.14z" style="fill:#fff;opacity:.9"></path></svg>